HIERARCHY
ROOT hip
{
  OFFSET 0 0 0
  CHANNELS 6 Xposition Yposition Zposition Zrotation Yrotation Xrotation
  JOINT abdomen
  {
    OFFSET 0 20.6881 -0.73152
    CHANNELS 3 Zrotation Xrotation Yrotation
    JOINT chest
    {
      OFFSET 0 11.7043 -0.48768
      CHANNELS 3 Zrotation Xrotation Yrotation
      JOINT neck
      {
        OFFSET 0 22.1894 -2.19456
        CHANNELS 3 Zrotation Xrotation Yrotation
        JOINT head
        {
          OFFSET -0.24384 7.07133 1.2192
          CHANNELS 3 Zrotation Xrotation Yrotation
          JOINT leftEye
          {
            OFFSET 4.14528 8.04674 8.04672
            CHANNELS 3 Zrotation Xrotation Yrotation
            End Site
            {
              OFFSET 1 0 0
            }
          }
          JOINT rightEye
          {
            OFFSET -3.6576 8.04674 8.04672
            CHANNELS 3 Zrotation Xrotation Yrotation
            End Site
            {
              OFFSET 1 0 0
            }
          }
        }
      }
      JOINT rCollar
      {
        OFFSET -2.68224 19.2634 -4.8768
        CHANNELS 3 Zrotation Xrotation Yrotation
        JOINT rShldr
        {
          OFFSET -8.77824 -1.95073 1.46304
          CHANNELS 3 Zrotation Xrotation Yrotation
          JOINT rForeArm
          {
            OFFSET -28.1742 -1.7115 0.48768
            CHANNELS 3 Zrotation Xrotation Yrotation
            JOINT rHand
            {
              OFFSET -22.5879 0.773209 7.07136
              CHANNELS 3 Zrotation Xrotation Yrotation
              JOINT rThumb1
              {
                OFFSET -1.2192 -0.487915 3.41376
                CHANNELS 3 Zrotation Xrotation Yrotation
                JOINT rThumb2
                {
                  OFFSET -3.37035 -0.52449 3.41376
                  CHANNELS 3 Zrotation Xrotation Yrotation
                  End Site
                  {
                    OFFSET -1.78271 -1.18214 1.43049
                  }
                }
              }
              JOINT rIndex1
              {
                OFFSET -7.75947 0.938293 5.60832
                CHANNELS 3 Zrotation Xrotation Yrotation
                JOINT rIndex2
                {
                  OFFSET -2.54057 -0.884171 1.56538
                  CHANNELS 3 Zrotation Xrotation Yrotation
                  End Site
                  {
                    OFFSET -1.62519 -0.234802 1.16502
                  }
                }
              }
              JOINT rMid1
              {
                OFFSET -8.24714 1.18213 3.41376
                CHANNELS 3 Zrotation Xrotation Yrotation
                JOINT rMid2
                {
                  OFFSET -3.10165 -0.590103 1.0647
                  CHANNELS 3 Zrotation Xrotation Yrotation
                  End Site
                  {
                    OFFSET -2.48547 -0.328903 0.83742
                  }
                }
              }
              JOINT rRing1
              {
                OFFSET -8.82822 0.546677 1.51678
                CHANNELS 3 Zrotation Xrotation Yrotation
                JOINT rRing2
                {
                  OFFSET -2.60934 -0.819778 -0.0198488
                  CHANNELS 3 Zrotation Xrotation Yrotation
                  End Site
                  {
                    OFFSET -2.33842 -0.294052 0.168128
                  }
                }
              }
              JOINT rPinky1
              {
                OFFSET -8.27202 -0.0477905 -0.4584
                CHANNELS 3 Zrotation Xrotation Yrotation
                JOINT rPinky2
                {
                  OFFSET -1.82734 -0.647385 -0.700984
                  CHANNELS 3 Zrotation Xrotation Yrotation
                  End Site
                  {
                    OFFSET -1.69225 -0.51767 -0.607171
                  }
                }
              }
            }
          }
        }
      }
      JOINT lCollar
      {
        OFFSET 2.68224 19.2634 -4.8768
        CHANNELS 3 Zrotation Xrotation Yrotation
        JOINT lShldr
        {
          OFFSET 8.77824 -1.95073 1.46304
          CHANNELS 3 Zrotation Xrotation Yrotation
          JOINT lForeArm
          {
            OFFSET 28.1742 -1.7115 0.48768
            CHANNELS 3 Zrotation Xrotation Yrotation
            JOINT lHand
            {
              OFFSET 22.5879 0.773209 7.07136
              CHANNELS 3 Zrotation Xrotation Yrotation
              JOINT lThumb1
              {
                OFFSET 1.2192 -0.487915 3.41376
                CHANNELS 3 Zrotation Xrotation Yrotation
                JOINT lThumb2
                {
                  OFFSET 3.37035 -0.52449 3.41376
                  CHANNELS 3 Zrotation Xrotation Yrotation
                  End Site
                  {
                    OFFSET 1.78271 -1.18214 1.43049
                  }
                }
              }
              JOINT lIndex1
              {
                OFFSET 7.75947 0.938293 5.60832
                CHANNELS 3 Zrotation Xrotation Yrotation
                JOINT lIndex2
                {
                  OFFSET 2.54057 -0.884171 1.56538
                  CHANNELS 3 Zrotation Xrotation Yrotation
                  End Site
                  {
                    OFFSET 1.62519 -0.234802 1.16502
                  }
                }
              }
              JOINT lMid1
              {
                OFFSET 8.24714 1.18213 3.41376
                CHANNELS 3 Zrotation Xrotation Yrotation
                JOINT lMid2
                {
                  OFFSET 3.10165 -0.590103 1.0647
                  CHANNELS 3 Zrotation Xrotation Yrotation
                  End Site
                  {
                    OFFSET 2.48547 -0.328903 0.83742
                  }
                }
              }
              JOINT lRing1
              {
                OFFSET 8.82822 0.546677 1.51678
                CHANNELS 3 Zrotation Xrotation Yrotation
                JOINT lRing2
                {
                  OFFSET 2.60934 -0.819778 -0.0198488
                  CHANNELS 3 Zrotation Xrotation Yrotation
                  End Site
                  {
                    OFFSET 2.33842 -0.294052 0.168128
                  }
                }
              }
              JOINT lPinky1
              {
                OFFSET 8.27202 -0.0477905 -0.4584
                CHANNELS 3 Zrotation Xrotation Yrotation
                JOINT lPinky2
                {
                  OFFSET 1.82734 -0.647385 -0.700984
                  CHANNELS 3 Zrotation Xrotation Yrotation
                  End Site
                  {
                    OFFSET 1.69225 -0.51767 -0.607171
                  }
                }
              }
            }
          }
        }
      }
    }
  }
  JOINT rButtock
  {
    OFFSET -8.77824 4.35084 1.2192
    CHANNELS 3 Zrotation Xrotation Yrotation
    JOINT rThigh
    {
      OFFSET 0 -1.70687 -2.19456
      CHANNELS 3 Zrotation Xrotation Yrotation
      JOINT rShin
      {
        OFFSET 0 -36.8199 0.73152
        CHANNELS 3 Zrotation Xrotation Yrotation
        JOINT rFoot
        {
          OFFSET 0.73152 -45.1104 -5.12064
          CHANNELS 3 Zrotation Xrotation Yrotation
          End Site
          {
            OFFSET -1.1221 -3.69964 12.103
          }
        }
      }
    }
  }
  JOINT lButtock
  {
    OFFSET 8.77824 4.35084 1.2192
    CHANNELS 3 Zrotation Xrotation Yrotation
    JOINT lThigh
    {
      OFFSET 0 -1.70687 -2.19456
      CHANNELS 3 Zrotation Xrotation Yrotation
      JOINT lShin
      {
        OFFSET 0 -36.8199 0.73152
        CHANNELS 3 Zrotation Xrotation Yrotation
        JOINT lFoot
        {
          OFFSET -0.73152 -45.1104 -5.12064
          CHANNELS 3 Zrotation Xrotation Yrotation
          End Site
          {
            OFFSET 1.1221 -3.69964 12.103
          }
        }
      }
    }
  }
}
MOTION
Frames:	9
Frame Time:	0.00833333
5.0229 83.9933 0.237941 0.0 0.0 0.0 -1.70621 -0.00254504 -0.0464499 -0.470558 0.00242719 -0.0814843 2.46013e-15 0.0 3.23025e-16 7.24011e-15 3.18055e-15 9.44227e-16 -0.0 0.0 0.0 -0.0 0.0 0.0 1.09208e-15 9.70628e-18 1.98785e-16 2.7806e-14 1.98785e-16 4.37326e-15 4.4324e-13 -1.29011e-13 6.99722e-14 5.08988e-12 1.64022e-13 6.42472e-13 1.20041e-11 7.37936e-14 1.54893e-12 2.07265e-11 1.24042e-13 2.67087e-12 1.20094e-11 7.55382e-14 1.54257e-12 7.73091 5.47488 0.417314 1.20051e-11 7.42461e-14 1.54575e-12 2.90554 0.965183 0.102902 1.20113e-11 7.40473e-14 1.54654e-12 10.2786 0.731801 0.0259123 1.2002e-11 7.39479e-14 1.54575e-12 2.22167 -0.733487 -0.20892 1.09463e-15 7.76503e-18 0.0 2.30962e-14 8.69683e-17 2.38542e-15 4.42196e-13 1.41733e-13 3.49861e-14 5.07669e-12 -1.0056e-13 6.83819e-13 1.1981e-11 8.8755e-14 1.54575e-12 2.06939e-11 1.52667e-13 2.67087e-12 1.1976e-11 9.10434e-14 1.55211e-12 -7.73091 5.47488 -0.417314 1.19816e-11 8.85586e-14 1.53939e-12 -2.90554 0.965183 -0.102902 1.19758e-11 8.90555e-14 1.54734e-12 -10.2786 0.731801 -0.0259123 1.19833e-11 9.10434e-14 1.54575e-12 -2.22167 -0.733487 0.20892 -2.03217e-16 0.0 -3.88251e-19 -0.810786 -1.9244 -0.00361014 -0.00901405 -2.07859 -0.0743006 -0.483674 3.99775 0.136109 2.03217e-16 0.0 3.88251e-19 -1.78667 -6.85419 0.17049 -0.00323685 6.85134 -0.0863744 0.513233 -0.00229467 -0.0582161
2.95082 83.0642 -1.06241 0.6495 -28.7281 2.9077 -2.40757 0.125277 0.203856 0.292974 -0.152793 -0.0184478 -2.31016 -0.0794521 0.311402 -0.0327855 6.74038 1.05203 -0.0 0.0 0.0 -0.0 0.0 0.0 -1.63046e-14 -3.33888e-14 -1.02886e-16 15.1247 13.3659 7.10256 -26.3724 -24.0431 13.9752 0.00798165 1.98197 0.277946 2.24777e-10 5.18477e-10 6.93739e-12 3.86919e-10 8.93449e-10 1.18886e-11 2.24783e-10 5.18477e-10 6.93438e-12 7.73091 5.47488 0.417314 2.24779e-10 5.18479e-10 6.93507e-12 2.90554 0.965183 0.102902 2.24784e-10 5.18477e-10 6.93662e-12 10.2786 0.731801 0.0259123 2.24776e-10 5.18478e-10 6.93704e-12 2.22167 -0.733487 -0.20892 -1.63298e-14 -3.33902e-14 -3.00506e-16 -21.1687 16.5918 -2.83318 17.7318 -15.2657 -15.0518 -0.0288733 -3.773 0.526123 9.48905e-11 -9.73141e-11 -3.26385e-11 1.63517e-10 -1.67908e-10 -5.58028e-11 9.48864e-11 -9.73115e-11 -3.26313e-11 -7.73091 5.47488 -0.417314 9.48915e-11 -9.73138e-11 -3.26413e-11 -2.90554 0.965183 -0.102902 9.48853e-11 -9.73134e-11 -3.26373e-11 -10.2786 0.731801 -0.0259123 9.48922e-11 -9.73117e-11 -3.26401e-11 -2.22167 -0.733487 0.20892 -2.03217e-16 0.0 -3.88251e-19 -3.43325 -5.05154 0.715118 -0.00383064 3.87935 0.0568653 -0.743384 0.405062 -3.24555 2.03217e-16 0.0 3.88251e-19 -2.17537 -7.76692 0.497086 -0.0204032 10.454 -0.159064 0.559244 -2.20785 1.38786
2.9594 83.0703 -1.04446 0.7037 -28.6469 2.8196 -3.15058 0.259966 0.469174 1.09853 -0.317483 0.0484006 -4.74758 -0.171415 0.64229 -0.352687 13.8799 2.21842 -0.0 0.0 0.0 -0.0 0.0 0.0 -3.52512e-14 -7.01668e-14 1.53126e-15 27.0909 26.8175 16.0206 -37.7546 -44.0714 37.9109 -0.004535 4.07579 0.572706 4.65291e-10 1.10179e-09 1.17808e-11 8.00843e-10 1.89856e-09 2.01374e-11 4.65297e-10 1.10179e-09 1.17818e-11 7.73091 5.47488 0.417314 4.65295e-10 1.10179e-09 1.17794e-11 2.90554 0.965183 0.102902 4.65297e-10 1.10179e-09 1.17819e-11 10.2786 0.731801 0.0259123 4.65291e-10 1.10179e-09 1.17836e-11 2.22167 -0.733487 -0.20892 -3.53072e-14 -7.01677e-14 1.33558e-15 -41.4298 33.9922 -6.73753 27.2108 -27.7019 -34.2022 0.0166677 -7.77583 1.0921 1.88046e-10 -2.14287e-10 -7.10389e-11 3.23991e-10 -3.69827e-10 -1.21523e-10 1.88043e-10 -2.14284e-10 -7.10307e-11 -7.73091 5.47488 -0.417314 1.88047e-10 -2.14286e-10 -7.10379e-11 -2.90554 0.965183 -0.102902 1.88041e-10 -2.14285e-10 -7.1038e-11 -10.2786 0.731801 -0.0259123 1.88047e-10 -2.14284e-10 -7.10421e-11 -2.22167 -0.733487 0.20892 -2.03217e-16 0.0 -3.88251e-19 -6.12036 -8.35598 1.48852 -0.0283963 10.1769 0.198362 -1.47894 -3.36894 -6.83387 2.03217e-16 0.0 3.88251e-19 -2.5761 -8.73039 0.845381 -0.0282644 14.2607 -0.238469 0.729145 -4.53429 2.92382
2.96035 83.0747 -1.03158 0.708 -28.5634 2.7617 -3.81364 0.380895 0.704481 1.82106 -0.463233 0.107629 -6.92788 -0.238328 0.934213 -0.881864 20.1929 3.33977 -0.0 0.0 0.0 -0.0 0.0 0.0 -5.1098e-14 -1.00186e-13 -7.06229e-16 33.5627 37.3098 26.4223 -31.2499 -49.0631 70.7878 -0.0340066 5.94535 0.837846 6.50322e-10 1.55528e-09 1.77143e-11 1.1193e-09 2.6801e-09 3.03241e-11 6.50329e-10 1.55528e-09 1.7718e-11 7.73091 5.47488 0.417314 6.50328e-10 1.55529e-09 1.77137e-11 2.90554 0.965183 0.102902 6.50328e-10 1.55528e-09 1.77168e-11 10.2786 0.731801 0.0259123 6.50323e-10 1.55529e-09 1.77196e-11 2.22167 -0.733487 -0.20892 -5.11785e-14 -1.00186e-13 -9.01519e-16 -56.4064 49.1529 -12.5111 28.568 -32.2243 -54.4971 0.124734 -11.3151 1.60618 2.60709e-10 -2.9212e-10 -1.01007e-10 4.49162e-10 -5.04029e-10 -1.7275e-10 2.60707e-10 -2.92117e-10 -1.00998e-10 -7.73091 5.47488 -0.417314 2.60711e-10 -2.92118e-10 -1.01003e-10 -2.90554 0.965183 -0.102902 2.60704e-10 -2.92118e-10 -1.01007e-10 -10.2786 0.731801 -0.0259123 2.6071e-10 -2.92117e-10 -1.01012e-10 -2.22167 -0.733487 0.20892 -2.03217e-16 0.0 -3.88251e-19 -8.43871 -11.299 2.18664 -0.0774682 15.795 0.331215 -2.53403 -6.67476 -10.077 2.03217e-16 0.0 3.88251e-19 -2.92112 -9.59129 1.15518 -0.0259195 17.6593 -0.312481 0.986793 -6.60237 4.30553
2.95271 83.0752 -1.0295 0.7127 -28.4936 2.7594 -4.2745 0.467451 0.86475 2.33531 -0.561634 0.147803 -8.46762 -0.242653 1.12871 -1.35655 24.4674 4.16952 -0.0 0.0 0.0 -0.0 0.0 0.0 -5.91952e-14 -1.13307e-13 -1.26228e-14 35.6415 43.1556 35.3966 -27.2459 -43.3198 90.1077 -0.0649902 7.25481 1.02514 6.96646e-10 1.68423e-09 2.63732e-11 1.1991e-09 2.90273e-09 4.53555e-11 6.96653e-10 1.68423e-09 2.63763e-11 7.73091 5.47488 0.417314 6.96653e-10 1.68424e-09 2.63732e-11 2.90554 0.965183 0.102902 6.96652e-10 1.68423e-09 2.63755e-11 10.2786 0.731801 0.0259123 6.96647e-10 1.68423e-09 2.63795e-11 2.22167 -0.733487 -0.20892 -5.92844e-14 -1.13307e-13 -1.28216e-14 -63.2789 59.215 -19.7287 28.0078 -30.659 -68.3016 0.235855 -13.6994 1.96326 2.82144e-10 -2.72104e-10 -1.09895e-10 4.86076e-10 -4.68938e-10 -1.87745e-10 2.82142e-10 -2.72101e-10 -1.09885e-10 -7.73091 5.47488 -0.417314 2.82146e-10 -2.72103e-10 -1.09888e-10 -2.90554 0.965183 -0.102902 2.82139e-10 -2.72103e-10 -1.09895e-10 -10.2786 0.731801 -0.0259123 2.82144e-10 -2.72102e-10 -1.09901e-10 -2.22167 -0.733487 0.20892 -2.03217e-16 0.0 -3.88251e-19 -10.0075 -13.3448 2.66562 -0.127754 19.7147 0.429773 -3.48939 -8.92199 -12.3695 2.03217e-16 0.0 3.88251e-19 -3.14947 -10.1967 1.36502 -0.0187747 20.0377 -0.366417 1.22654 -8.04039 5.27732
2.94224 83.0728 -1.03605 0.6978 -28.4649 2.7954 -4.45042 0.504983 0.915303 2.55736 -0.595168 0.160005 -9.11483 -0.14706 1.18746 -1.46028 25.8895 4.45376 -0.0 0.0 0.0 -0.0 0.0 0.0 -5.59651e-14 -1.01719e-13 -4.68829e-14 36.9624 44.9403 38.562 -27.306 -39.6016 95.075 -0.0789245 7.73427 1.09416 5.10721e-10 1.26775e-09 4.16647e-11 8.79321e-10 2.18619e-09 7.21259e-11 5.10725e-10 1.26775e-09 4.16615e-11 7.73091 5.47488 0.417314 5.10726e-10 1.26776e-09 4.16651e-11 2.90554 0.965183 0.102902 5.10726e-10 1.26775e-09 4.16644e-11 10.2786 0.731801 0.0259123 5.1072e-10 1.26775e-09 4.16695e-11 2.22167 -0.733487 -0.20892 -5.60366e-14 -1.01719e-13 -4.70941e-14 -64.5132 62.8761 -23.9798 27.9977 -29.1536 -73.3515 0.280386 -14.4538 2.07889 2.16746e-10 -3.77582e-11 -6.20201e-11 3.73204e-10 -6.28876e-11 -1.04905e-10 2.16745e-10 -3.77555e-11 -6.20106e-11 -7.73091 5.47488 -0.417314 2.16748e-10 -3.7756e-11 -6.20134e-11 -2.90554 0.965183 -0.102902 2.16742e-10 -3.77564e-11 -6.20211e-11 -10.2786 0.731801 -0.0259123 2.16747e-10 -3.77551e-11 -6.20281e-11 -2.22167 -0.733487 0.20892 -2.03217e-16 0.0 -3.88251e-19 -10.6082 -14.1389 2.80921 -0.1506 21.2577 0.469659 -3.90089 -9.76674 -13.251 2.03217e-16 0.0 3.88251e-19 -3.22593 -10.446 1.42675 -0.0147388 20.9876 -0.388223 1.33498 -8.60624 5.6586
2.92808 83.0716 -1.03143 0.6703 -28.4113 2.8078 -4.42261 0.507545 0.887706 2.57064 -0.582302 0.152289 -9.12419 0.0193206 1.14921 -1.23156 25.2807 4.31047 -0.0 0.0 0.0 -0.0 0.0 0.0 -4.4667e-14 -7.25319e-14 -9.66839e-14 38.992 44.526 36.6242 -27.3291 -39.826 94.1068 -0.0763942 7.62318 1.07823 1.60715e-10 4.66022e-10 6.15596e-11 2.7724e-10 8.06262e-10 1.07045e-10 1.60716e-10 4.6601e-10 6.15461e-11 7.73091 5.47488 0.417314 1.60717e-10 4.66029e-10 6.15604e-11 2.90554 0.965183 0.102902 1.60719e-10 4.66012e-10 6.15549e-11 10.2786 0.731801 0.0259123 1.60711e-10 4.66014e-10 6.1561e-11 2.22167 -0.733487 -0.20892 -4.47021e-14 -7.25319e-14 -9.69137e-14 -64.5339 62.3675 -23.4594 28.0362 -29.653 -73.3917 0.262518 -14.0454 2.01721 9.00449e-11 3.45998e-10 2.51009e-11 1.54592e-10 6.01755e-10 4.55725e-11 9.00448e-11 3.46e-10 2.51101e-11 -7.73091 5.47488 -0.417314 9.00474e-11 3.46001e-10 2.51067e-11 -2.90554 0.965183 -0.102902 9.00416e-11 3.46e-10 2.50985e-11 -10.2786 0.731801 -0.0259123 9.00474e-11 3.46002e-10 2.50912e-11 -2.22167 -0.733487 0.20892 -2.03217e-16 0.0 -3.88251e-19 -10.5349 -14.0401 2.70803 -0.146514 21.1032 0.464289 -3.83137 -9.63579 -13.1022 2.03217e-16 0.0 3.88251e-19 -3.19611 -10.441 1.38252 -0.0153532 20.9172 -0.385956 1.32465 -8.55245 5.6131
2.91605 83.07 -1.02598 0.6585 -28.3764 2.8151 -4.31457 0.497596 0.836291 2.50087 -0.548601 0.138672 -8.87257 0.194319 1.07115 -0.886353 23.8888 4.00335 -0.0 0.0 0.0 -0.0 0.0 0.0 -3.0906e-14 -3.79895e-14 -1.38633e-13 41.1254 43.0799 32.7524 -27.3615 -41.5427 90.6989 -0.0686442 7.34983 1.0389 -1.94027e-10 -3.44114e-10 7.87885e-11 -3.33029e-10 -5.88289e-10 1.37294e-10 -1.94028e-10 -3.4413e-10 7.8765e-11 7.73091 5.47488 0.417314 -1.94028e-10 -3.44108e-10 7.87892e-11 2.90554 0.965183 0.102902 -1.94023e-10 -3.4413e-10 7.87795e-11 10.2786 0.731801 0.0259123 -1.94033e-10 -3.44129e-10 7.87866e-11 2.22167 -0.733487 -0.20892 -3.0904e-14 -3.79895e-14 -1.38878e-13 -63.994 60.1827 -21.1035 28.1061 -31.0648 -71.4752 0.223256 -13.1965 1.88924 -3.69999e-11 6.6577e-10 8.43222e-11 -6.43574e-11 1.15552e-09 1.47732e-10 -3.69996e-11 6.65772e-10 8.43311e-11 -7.73091 5.47488 -0.417314 -3.69973e-11 6.65773e-10 8.43265e-11 -2.90554 0.965183 -0.102902 -3.70024e-11 6.65772e-10 8.4319e-11 -10.2786 0.731801 -0.0259123 -3.69961e-11 6.65775e-10 8.43108e-11 -2.22167 -0.733487 0.20892 -2.03217e-16 0.0 -3.88251e-19 -10.1863 -13.584 2.52236 -0.131775 20.2682 0.441024 -3.57604 -9.1253 -12.5496 2.03217e-16 0.0 3.88251e-19 -3.1214 -10.3324 1.3059 -0.0178456 20.4393 -0.37411 1.26664 -8.25286 5.39615
2.89899 83.0697 -1.01855 0.634 -28.359 2.8094 -4.24979 0.497592 0.815389 2.47376 -0.51963 0.133175 -8.73757 0.315751 1.01042 -0.626458 22.9629 3.78785 -0.0 0.0 0.0 -0.0 0.0 0.0 -2.02876e-14 -1.03364e-14 -1.49337e-13 42.9614 41.9758 29.9949 -27.5546 -42.3153 88.1809 -0.0665823 7.34254 1.03767 -3.9416e-10 -7.85809e-10 8.60817e-11 -6.77376e-10 -1.34872e-09 1.50053e-10 -3.94163e-10 -7.85826e-10 8.60531e-11 7.73091 5.47488 0.417314 -3.94163e-10 -7.85804e-10 8.60817e-11 2.90554 0.965183 0.102902 -3.94156e-10 -7.85828e-10 8.60706e-11 10.2786 0.731801 0.0259123 -3.94168e-10 -7.85828e-10 8.60785e-11 2.22167 -0.733487 -0.20892 -2.02658e-14 -1.03364e-14 -1.49585e-13 -63.4462 58.7954 -19.9393 28.207 -32.0362 -70.5121 0.199723 -12.6298 1.80462 -1.03428e-10 7.08163e-10 4.84971e-11 -1.7824e-10 1.22892e-09 8.5615e-11 -1.03429e-10 7.08166e-10 4.85066e-11 -7.73091 5.47488 -0.417314 -1.03426e-10 7.08166e-10 4.85003e-11 -2.90554 0.965183 -0.102902 -1.03431e-10 7.08166e-10 4.84947e-11 -10.2786 0.731801 -0.0259123 -1.03424e-10 7.08168e-10 4.84844e-11 -2.22167 -0.733487 0.20892 -2.03217e-16 0.0 -3.88251e-19 -9.96358 -13.3067 2.41197 -0.122965 19.7698 0.427382 -3.43055 -8.83139 -12.2199 2.03217e-16 0.0 3.88251e-19 -3.0634 -10.2709 1.27048 -0.019295 20.1668 -0.367253 1.23321 -8.08119 5.26335
